<svg width="32" height="32" viewBox="0 0 32 32" xmlns="http://www.w3.org/2000/svg">
  <rect width="32" height="32" rx="6" fill="#E07B29"/>
  <!-- Wings -->
  <path d="M10,20 C6,17 4,12 6,8 C8,12 9,16 10,18 Z" fill="#1A2744" opacity="0.6"/>
  <path d="M10,17 C5,14 3,9 5,5 C7,9 9,14 10,15 Z" fill="#1A2744"/>
  <path d="M22,20 C26,17 28,12 26,8 C24,12 23,16 22,18 Z" fill="#1A2744" opacity="0.6"/>
  <path d="M22,17 C27,14 29,9 27,5 C25,9 23,14 22,15 Z" fill="#1A2744"/>
  <!-- Suitcase body -->
  <rect x="9" y="11" width="14" height="14" rx="2" fill="#FFFFFF"/>
  <rect x="9" y="17" width="14" height="1.5" fill="#E07B29"/>
  <!-- Handle base -->
  <rect x="12" y="8.5" width="8" height="3.5" rx="1.5" fill="#FFFFFF"/>
  <!-- Handle struts -->
  <line x1="13.5" y1="6" x2="13.5" y2="8.5" stroke="#FFFFFF" stroke-width="1.5" stroke-linecap="round"/>
  <line x1="18.5" y1="6" x2="18.5" y2="8.5" stroke="#FFFFFF" stroke-width="1.5" stroke-linecap="round"/>
  <line x1="13.5" y1="6" x2="18.5" y2="6" stroke="#FFFFFF" stroke-width="1.5" stroke-linecap="round"/>
  <!-- Wheels -->
  <circle cx="12" cy="27" r="1.5" fill="#FFFFFF"/>
  <circle cx="20" cy="27" r="1.5" fill="#FFFFFF"/>
</svg>
